<?xml version="1.0" encoding="utf-8"?>
<!-- Generator: Adobe Illustrator 16.0.0, SVG Export Plug-In . SVG Version: 6.00 Build 0)  -->
<!DOCTYPE svg PUBLIC "-//W3C//DTD SVG 1.1//EN" "http://www.w3.org/Graphics/SVG/1.1/DTD/svg11.dtd">
<svg version="1.1" id="Layer_1" xmlns="http://www.w3.org/2000/svg" xmlns:xlink="http://www.w3.org/1999/xlink" x="0px" y="0px"
	 width="841.89px" height="595.28px" viewBox="0 0 841.89 595.28" enable-background="new 0 0 841.89 595.28" xml:space="preserve">
<g>
	<path d="M239.214,292.349h-0.532L181.188,97.876l-58.013,194.472h-0.546L65.415,93.899h2.675l54.805,189.616l58.034-194.469h0.54
		l57.48,194.188l54.28-189.335h2.941L239.214,292.349z"/>
	<path d="M364.854,95.888l-71.92,191.608h-2.948l74.609-198.45h0.532l74.057,198.45h-2.668L364.854,95.888z"/>
	<path d="M465.381,287.496V93.899h2.669v190.757h93.854v2.839H465.381z"/>
	<path d="M591.309,93.899h2.675v193.597h-2.675V93.899z"/>
	<path d="M776.873,190.697c0,57.225-34.224,96.798-94.12,96.798h-44.385V93.899h44.385
		C742.383,93.899,776.873,133.476,776.873,190.697z M682.753,284.939c58.293,0,91.452-37.585,91.452-94.242
		s-33.426-94.242-91.452-94.242h-41.71v188.484H682.753z"/>
</g>
<g>
	<path d="M364.581,507.108h-0.532l-74.063-198.45h2.675l71.662,191.335l71.92-191.335h2.941L364.581,507.108z"/>
	<path d="M584.088,451.876c0,29.595-18.18,50.407-53.733,50.407h-64.974V308.658h60.148c32.354,0,48.678,21.359,48.678,48.691
		c0,22.494-10.967,39.581-32.627,44.42C569.383,405.468,584.088,425.117,584.088,451.876z M530.082,400.629
		c26.471,0,41.45-17.936,41.45-43.279c0-25.631-14.706-46.128-46.003-46.128H468.05v89.407H530.082z M468.05,499.706h62.305
		c33.958,0,51.065-19.931,51.065-47.83c0-29.034-17.92-48.678-51.338-48.678H468.05V499.706z"/>
</g>
</svg>
